<svg t="1575694024645" class="icon" viewBox="0 0 1024 1024" version="1.1" xmlns="http://www.w3.org/2000/svg" p-id="6722" width="200" height="200"><path d="M513.9 935.8c-57.4 0-113-11.2-165.4-33.4-50.6-21.4-96.1-52-135.1-91.1-39-39-69.7-84.5-91.1-135.1-22.2-52.4-33.4-108.1-33.4-165.4s11.2-113 33.4-165.4c21.4-50.6 52-96.1 91.1-135.1 39-39 84.5-69.7 135.1-91.1C400.9 97 456.6 85.8 513.9 85.8s113 11.2 165.4 33.4c50.6 21.4 96.1 52 135.1 91.1 39 39 69.7 84.5 91.1 135.1 22.2 52.4 33.4 108.1 33.4 165.4s-11.2 113-33.4 165.4c-21.4 50.6-52 96.1-91.1 135.1-39 39-84.5 69.7-135.1 91.1-52.4 22.1-108 33.4-165.4 33.4z m0-836c-55.5 0-109.3 10.9-160 32.3-48.9 20.7-92.9 50.3-130.6 88.1s-67.4 81.7-88.1 130.6c-21.4 50.7-32.3 104.5-32.3 160s10.9 109.3 32.3 160c20.7 48.9 50.3 92.9 88.1 130.6 37.7 37.7 81.7 67.4 130.6 88.1 50.7 21.4 104.5 32.3 160 32.3s109.3-10.9 160-32.3c48.9-20.7 92.9-50.3 130.6-88.1 37.7-37.7 67.4-81.7 88.1-130.6 21.4-50.7 32.3-104.5 32.3-160s-10.9-109.3-32.3-160c-20.7-48.9-50.3-92.9-88.1-130.6-37.7-37.7-81.7-67.4-130.6-88.1-50.7-21.4-104.5-32.3-160-32.3z" fill="#4D4D4D" p-id="6723"></path><path d="M514.1 840.6c-88.1 0-170.9-34.3-233.2-96.6-62.3-62.3-96.6-145.1-96.6-233.2s34.3-170.9 96.6-233.2C343.2 215.3 426 181 514.1 181s170.9 34.3 233.2 96.6c62.3 62.3 96.6 145.1 96.6 233.2S809.6 681.7 747.3 744c-62.3 62.3-145.1 96.6-233.2 96.6z m0-645.6c-84.3 0-163.6 32.8-223.3 92.5-59.6 59.6-92.5 138.9-92.5 223.3 0 84.3 32.8 163.6 92.5 223.3 59.6 59.6 138.9 92.5 223.3 92.5s163.6-32.8 223.3-92.5c59.6-59.6 92.5-138.9 92.5-223.3 0-84.3-32.8-163.6-92.5-223.3-59.6-59.6-138.9-92.5-223.3-92.5z" fill="#4D4D4D" p-id="6724"></path><path d="M514.1 510.8m-192.8 0a192.8 192.8 0 1 0 385.6 0 192.8 192.8 0 1 0-385.6 0Z" fill="#FFFFFF" p-id="6725"></path><path d="M514.1 710.6c-110.2 0-199.8-89.6-199.8-199.8S403.9 311 514.1 311c110.2 0 199.8 89.6 199.8 199.8s-89.6 199.8-199.8 199.8z m0-385.7c-102.5 0-185.8 83.4-185.8 185.8 0 102.5 83.4 185.8 185.8 185.8S700 613.3 700 510.8c0-102.5-83.4-185.9-185.9-185.9z" fill="#4D4D4D" p-id="6726"></path><path d="M106.1 601.6m-48.3 0a48.3 48.3 0 1 0 96.6 0 48.3 48.3 0 1 0-96.6 0Z" fill="#00DFD4" p-id="6727"></path><path d="M106.1 657c-30.5 0-55.3-24.8-55.3-55.3s24.8-55.3 55.3-55.3 55.3 24.8 55.3 55.3-24.8 55.3-55.3 55.3z m0-96.7c-22.8 0-41.3 18.5-41.3 41.3S83.3 643 106.1 643s41.3-18.5 41.3-41.3-18.6-41.4-41.3-41.4z" fill="#4D4D4D" p-id="6728"></path><path d="M514.1 510.8m-119.3 0a119.3 119.3 0 1 0 238.6 0 119.3 119.3 0 1 0-238.6 0Z" fill="#00DFD4" p-id="6729"></path><path d="M514.1 637.1c-69.6 0-126.3-56.6-126.3-126.3 0-69.6 56.6-126.3 126.3-126.3 69.6 0 126.3 56.6 126.3 126.3 0 69.6-56.6 126.3-126.3 126.3z m0-238.6c-61.9 0-112.3 50.4-112.3 112.3s50.4 112.3 112.3 112.3 112.3-50.4 112.3-112.3S576 398.5 514.1 398.5z" fill="#4D4D4D" p-id="6730"></path><path d="M572.3 332.4m-36.6 0a36.6 36.6 0 1 0 73.2 0 36.6 36.6 0 1 0-73.2 0Z" fill="#00DFD4" p-id="6731"></path><path d="M572.3 376c-24 0-43.6-19.6-43.6-43.6s19.6-43.6 43.6-43.6 43.6 19.6 43.6 43.6-19.6 43.6-43.6 43.6z m0-73.2c-16.3 0-29.6 13.3-29.6 29.6S556 362 572.3 362s29.6-13.3 29.6-29.6-13.3-29.6-29.6-29.6z" fill="#4D4D4D" p-id="6732"></path><path d="M751.1 736.3m-41.8 0a41.8 41.8 0 1 0 83.6 0 41.8 41.8 0 1 0-83.6 0Z" fill="#00DFD4" p-id="6733"></path><path d="M751.1 785.1c-26.9 0-48.8-21.9-48.8-48.8s21.9-48.8 48.8-48.8 48.8 21.9 48.8 48.8-21.8 48.8-48.8 48.8z m0-83.6c-19.2 0-34.8 15.6-34.8 34.8s15.6 34.8 34.8 34.8 34.8-15.6 34.8-34.8-15.6-34.8-34.8-34.8z" fill="#4D4D4D" p-id="6734"></path><path d="M801.5 779.3c-6.6 0-13.7-2.3-17.4-3.6-12.8-4.2-30.1-12.5-46.3-22-15.9-9.4-30.3-19.4-40.3-28.4-9.5-8.5-19.7-19.4-13.9-29.2 6.4-10.9 24.4-5.4 39.4 0.6 3.6 1.4 5.3 5.5 3.9 9.1-1.4 3.6-5.5 5.3-9.1 3.9-12.2-4.9-18.3-5.8-21.1-5.8 1.1 1.9 3.7 5.3 10.1 11 9.4 8.4 22.9 17.9 38.1 26.8 11.9 7 29.6 16.1 43.6 20.8 6.9 2.3 10.8 2.8 12.9 2.8-1.3-2.3-4.7-6.7-13.4-14a7 7 0 0 1-0.9-9.9 7 7 0 0 1 9.9-0.9c11.5 9.6 23.9 21.9 17.7 32.5-2.9 4.8-7.9 6.3-13.2 6.3z" fill="#4D4D4D" p-id="6735"></path><path d="M587.8 469.1c-5.5-8.9-12.5-16.8-20.7-23.2" fill="#4D4D4D" p-id="6736"></path><path d="M587.8 476.1c-2.4 0-4.6-1.2-6-3.3-5-8.2-11.5-15.4-19.1-21.3-3.1-2.4-3.6-6.8-1.2-9.8s6.8-3.6 9.8-1.2c8.9 7 16.5 15.4 22.4 25 2 3.3 1 7.6-2.3 9.6-1.1 0.6-2.3 1-3.6 1z" fill="#FFFFFF" p-id="6737"></path><path d="M597.7 492.2c-0.8-3-1.7-5.9-2.8-8.7" fill="#4D4D4D" p-id="6738"></path><path d="M597.7 499.2c-3.1 0-5.9-2.1-6.8-5.2-0.7-2.7-1.6-5.4-2.6-8-1.4-3.6 0.4-7.7 4-9 3.6-1.4 7.7 0.4 9 4 1.2 3.1 2.2 6.3 3 9.4 1 3.7-1.2 7.6-5 8.6-0.4 0.1-1 0.2-1.6 0.2z" fill="#FFFFFF" p-id="6739"></path></svg>