<?xml version="1.0" encoding="utf-8"?>
<!-- Generator: Adobe Illustrator 23.0.0, SVG Export Plug-In . SVG Version: 6.00 Build 0)  -->
<svg version="1.1" id="图层_1" xmlns="http://www.w3.org/2000/svg" xmlns:xlink="http://www.w3.org/1999/xlink" x="0px" y="0px"
	 viewBox="0 0 200 200" style="enable-background:new 0 0 200 200;" xml:space="preserve">
<path d="M176.8,9.9h-130C41.4,9.9,36,15.3,36,20.7v25.9h10.8V20.7h130v130h-25.1v10.8h25.1c5.4,0,10.8-5.4,10.8-10.8v-130
	C187.7,15.3,182.3,9.9,176.8,9.9z"/>
<path d="M151.7,35.5h-127c-5.3,0-10.6,5.5-10.6,11.1v133.1c0,5.5,5.3,11.1,10.6,11.1h127c5.3,0,10.6-5.5,10.6-11.1V46.6
	C162.3,41.1,157,35.5,151.7,35.5z M151.7,179.7h-127V46.6h127V179.7z"/>
<path d="M36,46.6"/>
<path d="M151.7,160.3"/>
</svg>
